<svg xmlns="http://www.w3.org/2000/svg" xmlns:xlink="http://www.w3.org/1999/xlink" version="1.0" x="0" y="0" width="2400" height="2435.8799285564082" viewBox="148.20209129333497 102.87620933532715 43.59582504272461 44.24758132934571" preserveAspectRatio="xMidYMid meet" color-interpolation-filters="sRGB"><g><defs><linearGradient id="92" x1="0%" y1="0%" x2="100%" y2="0%"><stop offset="0%" stop-color="#fa71cd"></stop> <stop offset="100%" stop-color="#9b59b6"></stop></linearGradient><linearGradient id="93" x1="0%" y1="0%" x2="100%" y2="0%"><stop offset="0%" stop-color="#f9d423"></stop> <stop offset="100%" stop-color="#f83600"></stop></linearGradient><linearGradient id="94" x1="0%" y1="0%" x2="100%" y2="0%"><stop offset="0%" stop-color="#0064d2"></stop> <stop offset="100%" stop-color="#1cb0f6"></stop></linearGradient><linearGradient id="95" x1="0%" y1="0%" x2="100%" y2="0%"><stop offset="0%" stop-color="#f00978"></stop> <stop offset="100%" stop-color="#3f51b1"></stop></linearGradient><linearGradient id="96" x1="0%" y1="0%" x2="100%" y2="0%"><stop offset="0%" stop-color="#7873f5"></stop> <stop offset="100%" stop-color="#ec77ab"></stop></linearGradient><linearGradient id="97" x1="0%" y1="0%" x2="100%" y2="0%"><stop offset="0%" stop-color="#f9d423"></stop> <stop offset="100%" stop-color="#e14fad"></stop></linearGradient><linearGradient id="98" x1="0%" y1="0%" x2="100%" y2="0%"><stop offset="0%" stop-color="#009efd"></stop> <stop offset="100%" stop-color="#2af598"></stop></linearGradient><linearGradient id="99" x1="0%" y1="0%" x2="100%" y2="0%"><stop offset="0%" stop-color="#ffcc00"></stop> <stop offset="100%" stop-color="#00b140"></stop></linearGradient><linearGradient id="100" x1="0%" y1="0%" x2="100%" y2="0%"><stop offset="0%" stop-color="#d51007"></stop> <stop offset="100%" stop-color="#ff8177"></stop></linearGradient><linearGradient id="102" x1="0%" y1="0%" x2="100%" y2="0%"><stop offset="0%" stop-color="#a2b6df"></stop> <stop offset="100%" stop-color="#0c3483"></stop></linearGradient><linearGradient id="103" x1="0%" y1="0%" x2="100%" y2="0%"><stop offset="0%" stop-color="#7ac5d8"></stop> <stop offset="100%" stop-color="#eea2a2"></stop></linearGradient><linearGradient id="104" x1="0%" y1="0%" x2="100%" y2="0%"><stop offset="0%" stop-color="#00ecbc"></stop> <stop offset="100%" stop-color="#007adf"></stop></linearGradient><linearGradient id="105" x1="0%" y1="0%" x2="100%" y2="0%"><stop offset="0%" stop-color="#b88746"></stop> <stop offset="100%" stop-color="#fdf5a6"></stop></linearGradient></defs><g class="imagesvg isNoFont" transform="translate(148.62949752807617,103.30361938476562)"><g><rect fill="#35BB78" fill-opacity="0" stroke-width="2" x="0" y="0" width="42.74100328331861" height="43.39276257722859" class="image-rect"></rect> <svg x="0" y="0" width="42.74100328331861" height="43.39276257722859" filtersec="colorsb1557767864" class="image-svg-svg primary" style="overflow: visible;"><svg xmlns="http://www.w3.org/2000/svg" viewBox="1.335221767425537 1.9199390411376953 88.84712982177734 90.2020034790039"><path fill="#35BB78" d="M 57.04 31.90 Q 60.75 31.60 65.41 31.83 Q 70.83 32.11 73.64 33.11 Q 84.26 36.90 88.39 47.12 Q 91.23 54.13 89.57 62.98 Q 89.42 63.79 88.98 66.81 C 88.41 70.76 85.61 74.44 83.01 77.59 Q 80.88 80.18 76.65 83.07 Q 68.50 88.64 57.97 90.30 Q 50.41 91.50 49.55 91.61 C 42.53 92.52 35.24 91.96 28.48 91.86 Q 24.26 91.80 21.08 91.19 Q 18.53 90.69 13.76 89.77 C 10.55 89.15 7.82 87.75 6.38 84.44 Q 4.84 80.90 3.51 76.34 Q 2.89 74.20 2.66 69.98 C 2.49 66.90 1.93 63.77 1.72 61.41 Q 0.08 42.93 5.43 24.68 Q 7.84 16.46 13.78 10.79 C 17.62 7.13 23.05 4.79 28.14 2.88 C 35.41 0.16 43.67 3.50 48.15 9.37 Q 51.15 13.31 54.07 18.45 Q 54.87 19.85 55.60 22.47 C 56.29 24.95 57.52 27.62 56.14 30.62 A 0.91 0.90 9.9 0 0 57.04 31.90 Z M 76.27 75.78 Q 75.08 76.98 72.16 79.17 Q 68.89 81.62 66.85 82.32 Q 65.24 82.87 59.36 84.35 Q 56.14 85.16 51.69 85.32 Q 50.48 85.37 43.24 86.01 Q 36.85 86.58 28.18 83.07 Q 24.36 81.52 22.89 79.02 Q 20.07 74.19 20.96 68.49 Q 22.40 59.21 27.48 51.77 Q 31.69 45.59 35.49 42.14 Q 40.98 37.16 45.89 34.84 Q 47.94 33.87 52.76 32.64 A 1.39 1.39 0.0 0 0 53.37 30.29 C 51.98 28.97 50.84 28.02 49.59 26.28 Q 46.88 22.51 43.60 19.17 C 41.73 17.27 39.45 16.26 36.46 14.71 Q 30.89 11.82 24.81 13.82 Q 21.01 15.08 16.56 19.13 Q 13.90 21.56 11.70 27.32 Q 9.29 33.63 8.72 38.36 Q 8.14 43.17 7.82 44.50 Q 7.04 47.76 7.02 50.53 C 6.99 55.75 6.81 59.19 7.65 63.53 C 8.30 66.88 7.77 70.92 9.42 74.24 Q 9.93 75.25 12.80 79.44 Q 14.15 81.42 16.41 82.27 Q 19.96 83.61 23.98 84.99 Q 28.04 86.39 31.83 87.01 Q 41.13 88.51 50.81 88.02 C 53.02 87.90 54.59 87.20 56.46 87.07 Q 58.40 86.94 60.63 86.24 Q 69.68 83.40 71.76 82.30 Q 83.04 76.32 85.63 63.93 Q 85.99 62.18 85.99 60.06 C 85.99 57.08 86.13 53.45 85.42 50.46 C 84.25 45.45 82.49 43.60 78.60 39.68 Q 76.10 37.15 72.58 35.92 Q 68.54 34.50 64.50 34.19 Q 62.84 34.06 58.66 34.26 Q 55.17 34.43 52.92 35.24 Q 47.63 37.13 42.72 40.09 C 37.72 43.11 34.16 48.43 30.97 52.97 Q 25.84 60.27 24.94 69.04 C 23.69 81.22 41.41 84.54 49.62 83.42 Q 53.92 82.84 66.25 80.50 Q 67.46 80.27 70.20 78.40 C 72.11 77.10 73.78 76.42 75.86 75.25 A 0.34 0.34 0.0 0 1 76.27 75.78 Z"></path><path fill="#35BB78" d="M 39.18 27.61 Q 37.35 26.17 35.68 25.18 Q 34.77 24.63 34.55 22.84 Q 34.40 21.60 35.65 21.60 L 38.74 21.60 Q 39.82 21.60 39.82 22.68 L 39.82 27.30 A 0.40 0.39 18.9 0 1 39.18 27.61 Z"></path></svg></svg> </g></g><defs v-gra="od"></defs></g></svg>